<svg width="564" height="104" viewBox="0 0 564 104" fill="none" xmlns="http://www.w3.org/2000/svg">
<rect x="116" width="100" height="100" rx="20" fill="#9BE9A8"/>
<rect x="118.5" y="2.5" width="95" height="95" rx="17.5" stroke="#1B1F23" stroke-opacity="0.06" stroke-width="5"/>
<rect x="348" width="100" height="100" rx="20" fill="#30A14E"/>
<rect x="350.5" y="2.5" width="95" height="95" rx="17.5" stroke="#1B1F23" stroke-opacity="0.06" stroke-width="5"/>
<rect x="464" width="100" height="100" rx="20" fill="#216E39"/>
<rect x="466.5" y="2.5" width="95" height="95" rx="17.5" stroke="#1B1F23" stroke-opacity="0.06" stroke-width="5"/>
<rect width="100" height="100" rx="20" fill="#EBEDF0"/>
<rect x="2.5" y="2.5" width="95" height="95" rx="17.5" stroke="#1B1F23" stroke-opacity="0.06" stroke-width="5"/>
<rect x="232" width="100" height="100" rx="20" fill="#40C463"/>
<rect x="234.5" y="2.5" width="95" height="95" rx="17.5" stroke="#1B1F23" stroke-opacity="0.06" stroke-width="5"/>
<path d="M552.365 44.8815C519.656 78.1102 487.897 59.0562 476.106 45.3755" stroke="#EBEDF0" stroke-width="5"/>
<path d="M88.3652 65.4836C55.6564 32.2549 23.8974 51.309 12.1064 64.9896" stroke="#216E39" stroke-width="5"/>
</svg>
