<svg width="1155" height="184" viewBox="0 0 1155 184" fill="none" xmlns="http://www.w3.org/2000/svg">
<path d="M12.69 144V47.61H20.52V136.98H62.775V144H12.69ZM102.509 70.83C108.269 70.83 113.084 72.27 116.954 75.15C120.824 77.94 123.749 81.81 125.729 86.76C127.799 91.71 128.834 97.425 128.834 103.905V109.035H80.7743C80.8643 118.665 82.9343 126 86.9843 131.04C91.1243 136.08 97.0193 138.6 104.669 138.6C108.899 138.6 112.589 138.24 115.739 137.52C118.889 136.8 122.309 135.54 125.999 133.74V140.76C122.669 142.38 119.339 143.55 116.009 144.27C112.679 144.99 108.809 145.35 104.399 145.35C97.6493 145.35 91.8893 143.865 87.1193 140.895C82.4393 137.925 78.8843 133.695 76.4543 128.205C74.0243 122.625 72.8093 116.145 72.8093 108.765C72.8093 101.385 73.9343 94.86 76.1843 89.19C78.5243 83.52 81.8993 79.065 86.3093 75.825C90.8093 72.495 96.2093 70.83 102.509 70.83ZM102.374 77.31C96.2543 77.31 91.3043 79.515 87.5243 83.925C83.7443 88.245 81.5393 94.5 80.9093 102.69H120.869C120.869 97.65 120.194 93.24 118.844 89.46C117.584 85.68 115.559 82.71 112.769 80.55C110.069 78.39 106.604 77.31 102.374 77.31ZM189.521 124.965C189.521 129.285 188.486 132.975 186.416 136.035C184.436 139.095 181.466 141.435 177.506 143.055C173.636 144.585 168.911 145.35 163.331 145.35C158.651 145.35 154.466 144.9 150.776 144C147.176 143.1 144.116 142.02 141.596 140.76V133.335C144.656 134.955 148.076 136.305 151.856 137.385C155.636 138.375 159.506 138.87 163.466 138.87C170.036 138.87 174.761 137.7 177.641 135.36C180.611 132.93 182.096 129.645 182.096 125.505C182.096 122.805 181.376 120.6 179.936 118.89C178.586 117.09 176.561 115.515 173.861 114.165C171.161 112.725 167.741 111.285 163.601 109.845C159.461 108.315 155.816 106.785 152.666 105.255C149.516 103.635 147.041 101.61 145.241 99.18C143.441 96.75 142.541 93.42 142.541 89.19C142.541 83.43 144.746 78.93 149.156 75.69C153.656 72.45 159.596 70.83 166.976 70.83C171.026 70.83 174.806 71.235 178.316 72.045C181.826 72.855 185.066 73.935 188.036 75.285L185.471 81.63C183.671 80.82 181.736 80.1 179.666 79.47C177.596 78.75 175.436 78.21 173.186 77.85C171.026 77.49 168.821 77.31 166.571 77.31C161.351 77.31 157.301 78.3 154.421 80.28C151.541 82.26 150.101 85.14 150.101 88.92C150.101 91.8 150.776 94.095 152.126 95.805C153.566 97.425 155.636 98.865 158.336 100.125C161.036 101.295 164.321 102.6 168.191 104.04C172.241 105.48 175.886 107.01 179.126 108.63C182.366 110.25 184.886 112.32 186.686 114.84C188.576 117.36 189.521 120.735 189.521 124.965ZM249.111 124.965C249.111 129.285 248.076 132.975 246.006 136.035C244.026 139.095 241.056 141.435 237.096 143.055C233.226 144.585 228.501 145.35 222.921 145.35C218.241 145.35 214.056 144.9 210.366 144C206.766 143.1 203.706 142.02 201.186 140.76V133.335C204.246 134.955 207.666 136.305 211.446 137.385C215.226 138.375 219.096 138.87 223.056 138.87C229.626 138.87 234.351 137.7 237.231 135.36C240.201 132.93 241.686 129.645 241.686 125.505C241.686 122.805 240.966 120.6 239.526 118.89C238.176 117.09 236.151 115.515 233.451 114.165C230.751 112.725 227.331 111.285 223.191 109.845C219.051 108.315 215.406 106.785 212.256 105.255C209.106 103.635 206.631 101.61 204.831 99.18C203.031 96.75 202.131 93.42 202.131 89.19C202.131 83.43 204.336 78.93 208.746 75.69C213.246 72.45 219.186 70.83 226.566 70.83C230.616 70.83 234.396 71.235 237.906 72.045C241.416 72.855 244.656 73.935 247.626 75.285L245.061 81.63C243.261 80.82 241.326 80.1 239.256 79.47C237.186 78.75 235.026 78.21 232.776 77.85C230.616 77.49 228.411 77.31 226.161 77.31C220.941 77.31 216.891 78.3 214.011 80.28C211.131 82.26 209.691 85.14 209.691 88.92C209.691 91.8 210.366 94.095 211.716 95.805C213.156 97.425 215.226 98.865 217.926 100.125C220.626 101.295 223.911 102.6 227.781 104.04C231.831 105.48 235.476 107.01 238.716 108.63C241.956 110.25 244.476 112.32 246.276 114.84C248.166 117.36 249.111 120.735 249.111 124.965Z" fill="#57606A"/>
<path d="M902.975 144L870.845 55.845H870.44C870.62 57.465 870.71 59.31 870.71 61.38C870.8 63.36 870.845 65.475 870.845 67.725C870.935 69.885 870.98 72.135 870.98 74.475V144H863.69V47.61H875.3L906.215 132.12H906.62L937.805 47.61H949.415V144H941.585V73.665C941.585 71.685 941.585 69.66 941.585 67.59C941.675 65.52 941.765 63.495 941.855 61.515C942.035 59.535 942.125 57.69 942.125 55.98H941.72L909.32 144H902.975ZM1029.91 108.09C1029.91 113.67 1029.23 118.755 1027.88 123.345C1026.62 127.845 1024.69 131.76 1022.08 135.09C1019.56 138.33 1016.36 140.85 1012.49 142.65C1008.71 144.45 1004.35 145.35 999.398 145.35C994.718 145.35 990.488 144.495 986.708 142.785C983.018 140.985 979.868 138.465 977.258 135.225C974.648 131.895 972.668 127.935 971.318 123.345C969.968 118.755 969.293 113.67 969.293 108.09C969.293 100.26 970.508 93.6 972.938 88.11C975.368 82.53 978.878 78.255 983.468 75.285C988.148 72.315 993.683 70.83 1000.07 70.83C1006.55 70.83 1012 72.405 1016.41 75.555C1020.82 78.615 1024.15 82.935 1026.4 88.515C1028.74 94.095 1029.91 100.62 1029.91 108.09ZM977.258 108.09C977.258 114.21 978.068 119.61 979.688 124.29C981.308 128.88 983.738 132.435 986.978 134.955C990.308 137.475 994.493 138.735 999.533 138.735C1004.66 138.735 1008.89 137.475 1012.22 134.955C1015.55 132.345 1018.03 128.745 1019.65 124.155C1021.27 119.475 1022.08 114.12 1022.08 108.09C1022.08 102.06 1021.31 96.75 1019.78 92.16C1018.25 87.57 1015.87 83.97 1012.63 81.36C1009.39 78.75 1005.11 77.445 999.803 77.445C992.333 77.445 986.708 80.145 982.928 85.545C979.148 90.945 977.258 98.46 977.258 108.09ZM1076.31 70.965C1077.93 70.965 1079.5 71.1 1081.03 71.37C1082.65 71.55 1084.05 71.82 1085.22 72.18L1084.14 79.2C1082.88 78.84 1081.53 78.57 1080.09 78.39C1078.74 78.12 1077.3 77.985 1075.77 77.985C1072.71 77.985 1069.96 78.615 1067.53 79.875C1065.1 81.135 1062.99 82.935 1061.19 85.275C1059.48 87.615 1058.13 90.405 1057.14 93.645C1056.24 96.885 1055.79 100.53 1055.79 104.58V144H1048.09V72.18H1054.57L1055.38 85.68H1055.79C1056.87 82.89 1058.35 80.415 1060.24 78.255C1062.22 76.005 1064.56 74.25 1067.26 72.99C1069.96 71.64 1072.98 70.965 1076.31 70.965ZM1121.6 70.83C1127.36 70.83 1132.18 72.27 1136.05 75.15C1139.92 77.94 1142.84 81.81 1144.82 86.76C1146.89 91.71 1147.93 97.425 1147.93 103.905V109.035H1099.87C1099.96 118.665 1102.03 126 1106.08 131.04C1110.22 136.08 1116.11 138.6 1123.76 138.6C1127.99 138.6 1131.68 138.24 1134.83 137.52C1137.98 136.8 1141.4 135.54 1145.09 133.74V140.76C1141.76 142.38 1138.43 143.55 1135.1 144.27C1131.77 144.99 1127.9 145.35 1123.49 145.35C1116.74 145.35 1110.98 143.865 1106.21 140.895C1101.53 137.925 1097.98 133.695 1095.55 128.205C1093.12 122.625 1091.9 116.145 1091.9 108.765C1091.9 101.385 1093.03 94.86 1095.28 89.19C1097.62 83.52 1100.99 79.065 1105.4 75.825C1109.9 72.495 1115.3 70.83 1121.6 70.83ZM1121.47 77.31C1115.35 77.31 1110.4 79.515 1106.62 83.925C1102.84 88.245 1100.63 94.5 1100 102.69H1139.96C1139.96 97.65 1139.29 93.24 1137.94 89.46C1136.68 85.68 1134.65 82.71 1131.86 80.55C1129.16 78.39 1125.7 77.31 1121.47 77.31Z" fill="#57606A"/>
<rect x="387" y="47" width="100" height="100" rx="20" fill="#9BE9A8"/>
<rect x="389.5" y="49.5" width="95" height="95" rx="17.5" stroke="#1B1F23" stroke-opacity="0.06" stroke-width="5"/>
<rect x="619" y="47" width="100" height="100" rx="20" fill="#30A14E"/>
<rect x="621.5" y="49.5" width="95" height="95" rx="17.5" stroke="#1B1F23" stroke-opacity="0.06" stroke-width="5"/>
<rect x="735" y="47" width="100" height="100" rx="20" fill="#216E39"/>
<rect x="737.5" y="49.5" width="95" height="95" rx="17.5" stroke="#1B1F23" stroke-opacity="0.06" stroke-width="5"/>
<rect x="271" y="47" width="100" height="100" rx="20" fill="#EBEDF0"/>
<rect x="273.5" y="49.5" width="95" height="95" rx="17.5" stroke="#1B1F23" stroke-opacity="0.06" stroke-width="5"/>
<rect x="503" y="47" width="100" height="100" rx="20" fill="#40C463"/>
<rect x="505.5" y="49.5" width="95" height="95" rx="17.5" stroke="#1B1F23" stroke-opacity="0.06" stroke-width="5"/>
<path d="M823.365 91.8815C790.656 125.11 758.897 106.056 747.106 92.3755" stroke="#EBEDF0" stroke-width="5"/>
<path d="M359.365 112.484C326.656 79.2549 294.897 98.309 283.106 111.99" stroke="#216E39" stroke-width="5"/>
</svg>
